Bodoni-11-Fatface.ufo
<glyph name="numbersign" format="2">
  <advance width="2614"/>
  <unicode hex="0023"/>
  <outline>
    <contour>
      <point x="122.512" y="1072.64" type="line"/>
      <point x="2369.33" y="1072.64" type="line"/>
      <point x="2369.33" y="992.448" type="line"/>
      <point x="122.512" y="992.448" type="line"/>
    </contour>
    <contour>
      <point x="246" y="2141.55" type="line"/>
      <point x="2492.82" y="2141.55" type="line"/>
      <point x="2492.82" y="2060.85" type="line"/>
      <point x="246" y="2060.85" type="line"/>
    </contour>
    <contour>
      <point x="1849.34" y="3088" type="line"/>
      <point x="1930.05" y="3092" type="line"/>
      <point x="1520.56" y="-20" type="line"/>
      <point x="1439.86" y="-24.512" type="line"/>
    </contour>
    <contour>
      <point x="1054.26" y="3092" type="line"/>
      <point x="1134.96" y="3092" type="line"/>
      <point x="724.96" y="-20" type="line"/>
      <point x="644.256" y="-20" type="line"/>
    </contour>
  </outline>
</glyph>
<glyph name="dollar" format="1">
  <advance width="2600"/>
  <unicode hex="0024"/>
  <outline>
    <contour>
      <point x="1290" y="3400" type="line"/>
      <point x="1393" y="3400" type="line"/>
      <point x="1393" y="-328" type="line"/>
      <point x="1290" y="-328" type="line"/>
    </contour>
    <contour>
      <point x="1004" y="3400" type="line"/>
      <point x="1106" y="3400" type="line"/>
      <point x="1106" y="-328" type="line"/>
      <point x="1004" y="-328" type="line"/>
    </contour>
    <contour>
      <point x="2044" y="2736" type="curve"/>
      <point x="1917" y="2875"/>
      <point x="1642" y="3019"/>
      <point x="1257" y="3019" type="curve" smooth="yes"/>
      <point x="987" y="3019"/>
      <point x="778" y="2884"/>
      <point x="778" y="2642" type="curve" smooth="yes"/>
      <point x="778" y="2007"/>
      <point x="2437" y="2171"/>
      <point x="2437" y="942" type="curve" smooth="yes"/>
      <point x="2437" y="369"/>
      <point x="1990" y="-61"/>
      <point x="1290" y="-61" type="curve" smooth="yes"/>
      <point x="487" y="-61"/>
      <point x="102" y="328"/>
      <point x="102" y="676" type="curve" smooth="yes"/>
      <point x="102" y="946"/>
      <point x="270" y="1135"/>
      <point x="532" y="1135" type="curve" smooth="yes"/>
      <point x="737" y="1135"/>
      <point x="918" y="962"/>
      <point x="918" y="700" type="curve" smooth="yes"/>
      <point x="918" y="454"/>
      <point x="659" y="352"/>
      <point x="479" y="352" type="curve" smooth="yes"/>
      <point x="413" y="352"/>
      <point x="332" y="369"/>
      <point x="307" y="381" type="curve"/>
      <point x="475" y="225"/>
      <point x="721" y="29"/>
      <point x="1249" y="29" type="curve" smooth="yes"/>
      <point x="1683" y="29"/>
      <point x="1864" y="229"/>
      <point x="1864" y="512" type="curve" smooth="yes"/>
      <point x="1864" y="1229"/>
      <point x="205" y="921"/>
      <point x="205" y="2232" type="curve" smooth="yes"/>
      <point x="205" y="2764"/>
      <point x="761" y="3113"/>
      <point x="1257" y="3113" type="curve" smooth="yes"/>
      <point x="1740" y="3113"/>
      <point x="2273" y="2892"/>
      <point x="2273" y="2478" type="curve" smooth="yes"/>
      <point x="2273" y="2208"/>
      <point x="2126" y="2060"/>
      <point x="1864" y="2060" type="curve" smooth="yes"/>
      <point x="1659" y="2060"/>
      <point x="1479" y="2183"/>
      <point x="1479" y="2433" type="curve" smooth="yes"/>
      <point x="1479" y="2666"/>
      <point x="1655" y="2802"/>
      <point x="1835" y="2802" type="curve" smooth="yes"/>
      <point x="1880" y="2802"/>
      <point x="1966" y="2789"/>
    </contour>
  </outline>
</glyph>
<glyph name="percent" format="1">
  <advance width="4259"/>
  <unicode hex="0025"/>
  <outline>
    <contour>
      <point x="2970" y="860" type="curve" smooth="yes"/>
      <point x="2970" y="237"/>
      <point x="3035" y="41"/>
      <point x="3133" y="41" type="curve" smooth="yes"/>
      <point x="3231" y="41"/>
      <point x="3297" y="237"/>
      <point x="3297" y="860" type="curve" smooth="yes"/>
      <point x="3297" y="1483"/>
      <point x="3231" y="1679"/>
      <point x="3133" y="1679" type="curve" smooth="yes"/>
      <point x="3035" y="1679"/>
      <point x="2970" y="1483"/>
    </contour>
    <contour>
      <point x="2150" y="860" type="curve" smooth="yes"/>
      <point x="2150" y="1446"/>
      <point x="2670" y="1761"/>
      <point x="3133" y="1761" type="curve" smooth="yes"/>
      <point x="3596" y="1761"/>
      <point x="4116" y="1446"/>
      <point x="4116" y="860" type="curve" smooth="yes"/>
      <point x="4116" y="274"/>
      <point x="3514" y="-41"/>
      <point x="3133" y="-41" type="curve" smooth="yes"/>
      <point x="2670" y="-41"/>
      <point x="2150" y="274"/>
    </contour>
    <contour>
      <point x="3113" y="3072" type="line"/>
      <point x="3215" y="3072" type="line"/>
      <point x="1147" y="0" type="line"/>
      <point x="1044" y="0" type="line"/>
    </contour>
    <contour>
      <point x="963" y="2212" type="curve" smooth="yes"/>
      <point x="963" y="1589"/>
      <point x="1028" y="1393"/>
      <point x="1126" y="1393" type="curve" smooth="yes"/>
      <point x="1224" y="1393"/>
      <point x="1290" y="1589"/>
      <point x="1290" y="2212" type="curve" smooth="yes"/>
      <point x="1290" y="2835"/>
      <point x="1224" y="3031"/>
      <point x="1126" y="3031" type="curve" smooth="yes"/>
      <point x="1028" y="3031"/>
      <point x="963" y="2835"/>
    </contour>
    <contour>
      <point x="143" y="2212" type="curve" smooth="yes"/>
      <point x="143" y="2798"/>
      <point x="663" y="3113"/>
      <point x="1126" y="3113" type="curve" smooth="yes"/>
      <point x="1589" y="3113"/>
      <point x="2109" y="2798"/>
      <point x="2109" y="2212" type="curve" smooth="yes"/>
      <point x="2109" y="1626"/>
      <point x="1507" y="1311"/>
      <point x="1126" y="1311" type="curve" smooth="yes"/>
      <point x="663" y="1311"/>
      <point x="143" y="1626"/>
    </contour>
  </outline>
</glyph>
<glyph name="ampersand" format="1">
  <advance width="3764"/>
  <unicode hex="0026"/>
  <outline>
    <contour>
      <point x="1908" y="1985" type="curve"/>
      <point x="1869" y="2048" type="line"/>
      <point x="1906" y="2085"/>
      <point x="1970" y="2129"/>
      <point x="1970" y="2642" type="curve" smooth="yes"/>
      <point x="1970" y="2916"/>
      <point x="1930" y="3052"/>
      <point x="1778" y="3052" type="curve" smooth="yes"/>
      <point x="1646" y="3052"/>
      <point x="1582" y="2920"/>
      <point x="1582" y="2744" type="curve" smooth="yes"/>
      <point x="1582" y="2560"/>
      <point x="1724" y="2270"/>
      <point x="1900" y="2008" type="curve" smooth="yes"/>
      <point x="3158" y="82" type="line"/>
      <point x="3682" y="82" type="line"/>
      <point x="3682" y="0" type="line"/>
      <point x="2232" y="0" type="line"/>
      <point x="876" y="2008" type="line" smooth="yes"/>
      <point x="770" y="2164"/>
      <point x="688" y="2366"/>
      <point x="688" y="2510" type="curve" smooth="yes"/>
      <point x="688" y="2878"/>
      <point x="1118" y="3112"/>
      <point x="1798" y="3112" type="curve" smooth="yes"/>
      <point x="2442" y="3112"/>
      <point x="2806" y="2936"/>
      <point x="2806" y="2650" type="curve" smooth="yes"/>
      <point x="2806" y="2335"/>
      <point x="2404" y="2096"/>
    </contour>
    <contour>
      <point x="1071" y="1731" type="curve"/>
      <point x="1115" y="1666" type="line"/>
      <point x="1074" y="1639"/>
      <point x="1014" y="1577"/>
      <point x="1014" y="1366" type="curve" smooth="yes"/>
      <point x="1014" y="726"/>
      <point x="1242" y="194"/>
      <point x="1758" y="194" type="curve" smooth="yes"/>
      <point x="2360" y="194"/>
      <point x="2990" y="928"/>
      <point x="3096" y="1844" type="curve"/>
      <point x="3178" y="1844" type="line"/>
      <point x="3082" y="960"/>
      <point x="2466" y="-40"/>
      <point x="1224" y="-40" type="curve" smooth="yes"/>
      <point x="474" y="-40"/>
      <point x="154" y="316"/>
      <point x="154" y="738" type="curve" smooth="yes"/>
      <point x="154" y="1429"/>
      <point x="873" y="1644"/>
    </contour>
    <contour>
      <point x="2556" y="1884" type="line"/>
      <point x="3538" y="1884" type="line"/>
      <point x="3538" y="1802" type="line"/>
      <point x="2556" y="1802" type="line"/>
    </contour>
  </outline>
</glyph>
<glyph name="parenleft" format="2">
  <advance width="1581"/>
  <unicode hex="0028"/>
  <outline>
    <contour>
      <point x="1524.82" y="-641.312" type="curve"/>
      <point x="1486.51" y="-696" type="line"/>
      <point x="818.512" y="-409.488"/>
      <point x="266" y="377.488"/>
      <point x="266" y="1331.49" type="curve" smooth="yes"/>
      <point x="266" y="2285.49"/>
      <point x="818.512" y="2990"/>
      <point x="1486.51" y="3276.51" type="curve"/>
      <point x="1524.82" y="3221.31" type="line"/>
      <point x="1221.33" y="3016.8"/>
      <point x="1146.51" y="2117.49"/>
      <point x="1146.51" y="1331.49" type="curve" smooth="yes"/>
      <point x="1146.51" y="545.488"/>
      <point x="1221.33" y="-436.8"/>
    </contour>
  </outline>
</glyph>
<glyph name="plus" format="1">
  <advance width="2170"/>
  <unicode hex="002B"/>
  <outline>
    <contour>
      <point x="1044" y="451" type="line"/>
      <point x="1044" y="2130" type="line"/>
      <point x="1126" y="2130" type="line"/>
      <point x="1126" y="451" type="line"/>
    </contour>
    <contour>
      <point x="246" y="1335" type="line"/>
      <point x="1925" y="1335" type="line"/>
      <point x="1925" y="1253" type="line"/>
      <point x="246" y="1253" type="line"/>
    </contour>
  </outline>
</glyph>
<glyph name="period" format="2">
  <advance width="1310"/>
  <unicode hex="002E"/>
  <outline>
    <contour>
      <point x="164" y="450.512" type="curve" smooth="yes"/>
      <point x="164" y="720.512"/>
      <point x="385.488" y="942"/>
      <point x="655.488" y="942" type="curve" smooth="yes"/>
      <point x="925.488" y="942"/>
      <point x="1146.51" y="720.512"/>
      <point x="1146.51" y="450.512" type="curve" smooth="yes"/>
      <point x="1146.51" y="180.512"/>
      <point x="925.488" y="-40.512"/>
      <point x="655.488" y="-40.512" type="curve" smooth="yes"/>
      <point x="385.488" y="-40.512"/>
      <point x="164" y="180.512"/>
    </contour>
  </outline>
</glyph>
<glyph name="three" format="1">
  <advance width="2543"/>
  <unicode hex="0033"/>
  <outline>
    <contour>
      <point x="2380" y="860" type="curve" smooth="yes"/>
      <point x="2380" y="287"/>
      <point x="1810" y="-41"/>
      <point x="1151" y="-41" type="curve" smooth="yes"/>
      <point x="446" y="-41"/>
      <point x="102" y="385"/>
      <point x="102" y="762" type="curve" smooth="yes"/>
      <point x="102" y="1053"/>
      <point x="307" y="1253"/>
      <point x="573" y="1253" type="curve" smooth="yes"/>
      <point x="819" y="1253"/>
      <point x="999" y="1073"/>
      <point x="999" y="803" type="curve" smooth="yes"/>
      <point x="999" y="549"/>
      <point x="783" y="369"/>
      <point x="541" y="369" type="curve" smooth="yes"/>
      <point x="414" y="369"/>
      <point x="344" y="422"/>
      <point x="328" y="426" type="curve"/>
      <point x="471" y="229"/>
      <point x="680" y="94"/>
      <point x="987" y="94" type="curve" smooth="yes"/>
      <point x="1393" y="94"/>
      <point x="1475" y="352"/>
      <point x="1475" y="860" type="curve" smooth="yes"/>
      <point x="1475" y="1286"/>
      <point x="1359" y="1622"/>
      <point x="872" y="1622" type="curve"/>
      <point x="872" y="1679" type="line"/>
      <point x="1941" y="1679"/>
      <point x="2380" y="1352"/>
    </contour>
    <contour>
      <point x="872" y="1642" type="curve"/>
      <point x="872" y="1700" type="line"/>
      <point x="1318" y="1700"/>
      <point x="1352" y="2118"/>
      <point x="1352" y="2421" type="curve" smooth="yes"/>
      <point x="1352" y="2765"/>
      <point x="1250" y="2982"/>
      <point x="1008" y="2982" type="curve" smooth="yes"/>
      <point x="836" y="2982"/>
      <point x="716" y="2916"/>
      <point x="614" y="2855" type="curve"/>
      <point x="634" y="2859"/>
      <point x="660" y="2863"/>
      <point x="705" y="2863" type="curve" smooth="yes"/>
      <point x="906" y="2863"/>
      <point x="1102" y="2700"/>
      <point x="1102" y="2454" type="curve" smooth="yes"/>
      <point x="1102" y="2188"/>
      <point x="889" y="1999"/>
      <point x="664" y="1999" type="curve" smooth="yes"/>
      <point x="418" y="1999"/>
      <point x="225" y="2147"/>
      <point x="225" y="2417" type="curve" smooth="yes"/>
      <point x="225" y="2835"/>
      <point x="733" y="3109"/>
      <point x="1151" y="3109" type="curve" smooth="yes"/>
      <point x="1769" y="3109"/>
      <point x="2257" y="2831"/>
      <point x="2257" y="2380" type="curve" smooth="yes"/>
      <point x="2257" y="1970"/>
      <point x="1900" y="1642"/>
    </contour>
  </outline>
</glyph>
<glyph name="five" format="1">
  <advance width="2334"/>
  <unicode hex="0035"/>
  <outline>
    <contour>
      <point x="2068" y="2212" type="line"/>
      <point x="274" y="2212" type="line"/>
      <point x="274" y="1380" type="line"/>
      <point x="193" y="1380" type="line"/>
      <point x="193" y="3072" type="line"/>
      <point x="1987" y="3072" type="line"/>
      <point x="1987" y="3297" type="line"/>
      <point x="2068" y="3297" type="line"/>
    </contour>
    <contour>
      <point x="348" y="180" type="curve"/>
      <point x="389" y="127"/>
      <point x="582" y="61"/>
      <point x="721" y="61" type="curve" smooth="yes"/>
      <point x="1086" y="61"/>
      <point x="1290" y="332"/>
      <point x="1290" y="881" type="curve" smooth="yes"/>
      <point x="1290" y="1512"/>
      <point x="1143" y="1671"/>
      <point x="819" y="1671" type="curve" smooth="yes"/>
      <point x="594" y="1671"/>
      <point x="405" y="1556"/>
      <point x="303" y="1380" type="curve"/>
      <point x="233" y="1380" type="line"/>
      <point x="339" y="1613"/>
      <point x="577" y="1802"/>
      <point x="1032" y="1802" type="curve" smooth="yes"/>
      <point x="1732" y="1802"/>
      <point x="2212" y="1495"/>
      <point x="2212" y="881" type="curve" smooth="yes"/>
      <point x="2212" y="308"/>
      <point x="1626" y="-41"/>
      <point x="885" y="-41" type="curve" smooth="yes"/>
      <point x="426" y="-41"/>
      <point x="-41" y="151"/>
      <point x="-41" y="610" type="curve" smooth="yes"/>
      <point x="-41" y="901"/>
      <point x="172" y="1110"/>
      <point x="438" y="1110" type="curve" smooth="yes"/>
      <point x="704" y="1110"/>
      <point x="918" y="942"/>
      <point x="918" y="655" type="curve" smooth="yes"/>
      <point x="918" y="389"/>
      <point x="680" y="164"/>
      <point x="438" y="164" type="curve" smooth="yes"/>
      <point x="393" y="164"/>
      <point x="373" y="172"/>
    </contour>
  </outline>
</glyph>
<glyph name="eight" format="2">
  <advance width="2662"/>
  <unicode hex="0038"/>
  <outline>
    <contour>
      <point x="1147" y="2294" type="curve" smooth="yes"/>
      <point x="1147" y="1745"/>
      <point x="1212" y="1618"/>
      <point x="1331" y="1618" type="curve" smooth="yes"/>
      <point x="1450" y="1618"/>
      <point x="1516" y="1745"/>
      <point x="1516" y="2294" type="curve" smooth="yes"/>
      <point x="1516" y="2802"/>
      <point x="1450" y="3031"/>
      <point x="1331" y="3031" type="curve" smooth="yes"/>
      <point x="1212" y="3031"/>
      <point x="1147" y="2802"/>
    </contour>
    <contour>
      <point x="246" y="2294" type="curve" smooth="yes"/>
      <point x="246" y="2745"/>
      <point x="631" y="3113"/>
      <point x="1331" y="3113" type="curve" smooth="yes"/>
      <point x="2031" y="3113"/>
      <point x="2417" y="2745"/>
      <point x="2417" y="2294" type="curve" smooth="yes"/>
      <point x="2417" y="1843"/>
      <point x="2031" y="1556"/>
      <point x="1331" y="1556" type="curve" smooth="yes"/>
      <point x="631" y="1556"/>
      <point x="246" y="1843"/>
    </contour>
    <contour>
      <point x="1065" y="778" type="curve" smooth="yes"/>
      <point x="1065" y="311"/>
      <point x="1130" y="41"/>
      <point x="1331" y="41" type="curve" smooth="yes"/>
      <point x="1532" y="41"/>
      <point x="1597" y="311"/>
      <point x="1597" y="778" type="curve" smooth="yes"/>
      <point x="1597" y="1245"/>
      <point x="1532" y="1536"/>
      <point x="1331" y="1536" type="curve" smooth="yes"/>
      <point x="1130" y="1536"/>
      <point x="1065" y="1245"/>
    </contour>
    <contour>
      <point x="164" y="778" type="curve" smooth="yes"/>
      <point x="164" y="1270"/>
      <point x="549" y="1597"/>
      <point x="1331" y="1597" type="curve" smooth="yes"/>
      <point x="2113" y="1597"/>
      <point x="2499" y="1270"/>
      <point x="2499" y="778" type="curve" smooth="yes"/>
      <point x="2499" y="286"/>
      <point x="2113" y="-41"/>
      <point x="1331" y="-41" type="curve" smooth="yes"/>
      <point x="549" y="-41"/>
      <point x="164" y="286"/>
    </contour>
  </outline>
</glyph>
<glyph name="question" format="2">
  <advance width="2539"/>
  <unicode hex="003F"/>
  <outline>
    <contour>
      <point x="1012" y="1511" type="line"/>
      <point x="1327" y="1638"/>
      <point x="1430" y="1913"/>
      <point x="1430" y="2294" type="curve" smooth="yes"/>
      <point x="1430" y="2679"/>
      <point x="1373" y="2986"/>
      <point x="1049" y="2986" type="curve" smooth="yes"/>
      <point x="787" y="2986"/>
      <point x="528" y="2802"/>
      <point x="446" y="2646" type="curve"/>
      <point x="462" y="2650"/>
      <point x="537" y="2703"/>
      <point x="664" y="2703" type="curve" smooth="yes"/>
      <point x="906" y="2703"/>
      <point x="1122" y="2560"/>
      <point x="1122" y="2314" type="curve" smooth="yes"/>
      <point x="1122" y="2048"/>
      <point x="950" y="1880"/>
      <point x="684" y="1880" type="curve" smooth="yes"/>
      <point x="397" y="1880"/>
      <point x="246" y="2069"/>
      <point x="246" y="2339" type="curve" smooth="yes"/>
      <point x="246" y="2716"/>
      <point x="630" y="3113"/>
      <point x="1253" y="3113" type="curve" smooth="yes"/>
      <point x="1912" y="3113"/>
      <point x="2335" y="2786"/>
      <point x="2335" y="2294" type="curve" smooth="yes"/>
      <point x="2335" y="1823"/>
      <point x="1876" y="1495"/>
      <point x="1094" y="1458" type="curve"/>
      <point x="1094" y="1143" type="line"/>
      <point x="1012" y="1143" type="line"/>
    </contour>
    <component base="period" xOffset="528"/>
  </outline>
</glyph>
<glyph name="F" format="1">
  <advance width="2621"/>
  <unicode hex="0046"/>
  <outline>
    <contour>
      <point x="61" y="3072" type="line"/>
      <point x="2499" y="3072" type="line"/>
      <point x="2499" y="2232" type="line"/>
      <point x="2417" y="2232" type="line"/>
      <point x="2294" y="2670"/>
      <point x="2035" y="2990"/>
      <point x="1597" y="2990" type="curve" smooth="yes"/>
      <point x="61" y="2990" type="line"/>
    </contour>
    <contour>
      <point x="61" y="82" type="line"/>
      <point x="1720" y="82" type="line"/>
      <point x="1720" y="0" type="line"/>
      <point x="61" y="0" type="line"/>
    </contour>
    <contour>
      <point x="430" y="3072" type="line"/>
      <point x="1311" y="3072" type="line"/>
      <point x="1311" y="0" type="line"/>
      <point x="430" y="0" type="line"/>
    </contour>
    <contour>
      <point x="1884" y="934" type="line"/>
      <point x="1761" y="1208"/>
      <point x="1605" y="1487"/>
      <point x="1331" y="1487" type="curve" smooth="yes"/>
      <point x="1065" y="1487" type="line"/>
      <point x="1065" y="1569" type="line"/>
      <point x="1331" y="1569" type="line" smooth="yes"/>
      <point x="1605" y="1569"/>
      <point x="1761" y="1827"/>
      <point x="1884" y="2101" type="curve"/>
      <point x="1966" y="2101" type="line"/>
      <point x="1966" y="934" type="line"/>
    </contour>
  </outline>
</glyph>
<glyph name="I" format="2">
  <advance width="1945"/>
  <unicode hex="0049"/>
  <outline>
    <contour>
      <point x="61" y="82" type="line"/>
      <point x="1884" y="82" type="line"/>
      <point x="1884" y="0" type="line"/>
      <point x="61" y="0" type="line"/>
    </contour>
    <contour>
      <point x="61" y="3072" type="line"/>
      <point x="1884" y="3072" type="line"/>
      <point x="1884" y="2990" type="line"/>
      <point x="61" y="2990" type="line"/>
    </contour>
    <contour>
      <point x="512" y="3072" type="line"/>
      <point x="1393" y="3072" type="line"/>
      <point x="1393" y="0" type="line"/>
      <point x="512" y="0" type="line"/>
    </contour>
  </outline>
</glyph>
<glyph name="L" format="2">
  <advance width="2703"/>
  <unicode hex="004C"/>
  <outline>
    <contour>
      <point x="430" y="3072" type="line"/>
      <point x="1311" y="3072" type="line"/>
      <point x="1311" y="0" type="line"/>
      <point x="430" y="0" type="line"/>
    </contour>
    <contour>
      <point x="61" y="3072" type="line"/>
      <point x="1679" y="3072" type="line"/>
      <point x="1679" y="2990" type="line"/>
      <point x="61" y="2990" type="line"/>
    </contour>
    <contour>
      <point x="2621" y="0" type="line"/>
      <point x="61" y="0" type="line"/>
      <point x="61" y="82" type="line"/>
      <point x="1516" y="82" type="line" smooth="yes"/>
      <point x="2077" y="82"/>
      <point x="2417" y="402"/>
      <point x="2540" y="922" type="curve"/>
      <point x="2621" y="922" type="line"/>
    </contour>
  </outline>
</glyph>
<glyph name="M" format="2">
  <advance width="3850"/>
  <unicode hex="004D"/>
  <outline>
    <contour>
      <point x="3789" y="3072" type="line"/>
      <point x="3789" y="2990" type="line"/>
      <point x="3502" y="2990" type="line"/>
      <point x="3502" y="0" type="line"/>
      <point x="2621" y="0" type="line"/>
      <point x="2621" y="3072" type="line"/>
    </contour>
    <contour>
      <point x="82" y="82" type="line"/>
      <point x="745" y="82" type="line"/>
      <point x="745" y="0" type="line"/>
      <point x="82" y="0" type="line"/>
    </contour>
    <contour>
      <point x="2294" y="82" type="line"/>
      <point x="3789" y="82" type="line"/>
      <point x="3789" y="0" type="line"/>
      <point x="2294" y="0" type="line"/>
    </contour>
    <contour>
      <point x="1946" y="1225" type="line"/>
      <point x="2572" y="3072" type="line"/>
      <point x="2662" y="3072" type="line"/>
      <point x="1610" y="-41" type="line"/>
      <point x="1520" y="-41" type="line"/>
      <point x="381" y="3072" type="line"/>
      <point x="1266" y="3072" type="line"/>
    </contour>
    <contour>
      <point x="369" y="2990" type="line"/>
      <point x="61" y="2990" type="line"/>
      <point x="61" y="3072" type="line"/>
      <point x="459" y="3072" type="line"/>
      <point x="459" y="0" type="line"/>
      <point x="369" y="0" type="line"/>
    </contour>
  </outline>
</glyph>
<glyph name="R" format="1">
  <advance width="3235"/>
  <unicode hex="0052"/>
  <outline>
    <contour>
      <point x="1577" y="1565" type="curve" smooth="yes"/>
      <point x="799" y="1565" type="line"/>
      <point x="799" y="1618" type="line"/>
      <point x="1372" y="1618" type="line" smooth="yes"/>
      <point x="1765" y="1618"/>
      <point x="1946" y="1786"/>
      <point x="1946" y="2314" type="curve" smooth="yes"/>
      <point x="1946" y="2842"/>
      <point x="1765" y="2990"/>
      <point x="1372" y="2990" type="curve" smooth="yes"/>
      <point x="61" y="2990" type="line"/>
      <point x="61" y="3072" type="line"/>
      <point x="1577" y="3072" type="line" smooth="yes"/>
      <point x="2318" y="3072"/>
      <point x="2847" y="2846"/>
      <point x="2847" y="2314" type="curve" smooth="yes"/>
      <point x="2847" y="1782"/>
      <point x="2359" y="1565"/>
    </contour>
    <contour>
      <point x="61" y="82" type="line"/>
      <point x="1679" y="82" type="line"/>
      <point x="1679" y="0" type="line"/>
      <point x="61" y="0" type="line"/>
    </contour>
    <contour>
      <point x="430" y="3072" type="line"/>
      <point x="1311" y="3072" type="line"/>
      <point x="1311" y="0" type="line"/>
      <point x="430" y="0" type="line"/>
    </contour>
    <contour>
      <point x="3195" y="61" type="line"/>
      <point x="3129" y="24"/>
      <point x="2891" y="-41"/>
      <point x="2580" y="-41" type="curve" smooth="yes"/>
      <point x="1298" y="-41"/>
      <point x="2401" y="1536"/>
      <point x="1393" y="1536" type="curve" smooth="yes"/>
      <point x="799" y="1536" type="line"/>
      <point x="799" y="1577" type="line"/>
      <point x="1966" y="1577" type="line" smooth="yes"/>
      <point x="3248" y="1577"/>
      <point x="2466" y="98"/>
      <point x="2970" y="98" type="curve" smooth="yes"/>
      <point x="3056" y="98"/>
      <point x="3113" y="114"/>
      <point x="3170" y="139" type="curve"/>
    </contour>
  </outline>
</glyph>
<glyph name="T" format="2">
  <advance width="2969"/>
  <unicode hex="0054"/>
  <outline>
    <contour>
      <point x="594" y="82" type="line"/>
      <point x="2376" y="82" type="line"/>
      <point x="2376" y="0" type="line"/>
      <point x="594" y="0" type="line"/>
    </contour>
    <contour>
      <point x="1044" y="3031" type="line"/>
      <point x="1925" y="3031" type="line"/>
      <point x="1925" y="0" type="line"/>
      <point x="1044" y="0" type="line"/>
    </contour>
    <contour>
      <point x="2048" y="2990" type="curve" smooth="yes"/>
      <point x="922" y="2990" type="line" smooth="yes"/>
      <point x="525" y="2990"/>
      <point x="266" y="2548"/>
      <point x="143" y="2028" type="curve"/>
      <point x="61" y="2028" type="line"/>
      <point x="61" y="3072" type="line"/>
      <point x="2908" y="3072" type="line"/>
      <point x="2908" y="2028" type="line"/>
      <point x="2826" y="2028" type="line"/>
      <point x="2703" y="2548"/>
      <point x="2445" y="2990"/>
    </contour>
  </outline>
</glyph>
<glyph name="U" format="2">
  <advance width="3072"/>
  <unicode hex="0055"/>
  <outline>
    <contour>
      <point x="2212" y="3072" type="line"/>
      <point x="3011" y="3072" type="line"/>
      <point x="3011" y="2990" type="line"/>
      <point x="2212" y="2990" type="line"/>
    </contour>
    <contour>
      <point x="61" y="3072" type="line"/>
      <point x="1720" y="3072" type="line"/>
      <point x="1720" y="2990" type="line"/>
      <point x="61" y="2990" type="line"/>
    </contour>
    <contour>
      <point x="2560" y="3072" type="line"/>
      <point x="2642" y="3072" type="line"/>
      <point x="2642" y="942" type="line" smooth="yes"/>
      <point x="2642" y="266"/>
      <point x="2306" y="-61"/>
      <point x="1618" y="-61" type="curve" smooth="yes"/>
      <point x="787" y="-61"/>
      <point x="430" y="233"/>
      <point x="430" y="942" type="curve" smooth="yes"/>
      <point x="430" y="3072" type="line"/>
      <point x="1311" y="3072" type="line"/>
      <point x="1311" y="983" type="line" smooth="yes"/>
      <point x="1311" y="442"/>
      <point x="1397" y="82"/>
      <point x="1864" y="82" type="curve" smooth="yes"/>
      <point x="2208" y="82"/>
      <point x="2560" y="319"/>
      <point x="2560" y="942" type="curve" smooth="yes"/>
    </contour>
  </outline>
</glyph>
<glyph name="X" format="1">
  <advance width="3481"/>
  <unicode hex="0058"/>
  <outline>
    <contour>
      <point x="1839" y="1544" type="line"/>
      <point x="1716" y="1544" type="line"/>
      <point x="2769" y="3064" type="line"/>
      <point x="2871" y="3064" type="line"/>
    </contour>
    <contour>
      <point x="508" y="0" type="line"/>
      <point x="393" y="0" type="line"/>
      <point x="1610" y="1708" type="line"/>
      <point x="1720" y="1708" type="line"/>
    </contour>
    <contour>
      <point x="1802" y="82" type="line"/>
      <point x="3441" y="82" type="line"/>
      <point x="3441" y="0" type="line"/>
      <point x="1802" y="0" type="line"/>
    </contour>
    <contour>
      <point x="41" y="82" type="line"/>
      <point x="1024" y="82" type="line"/>
      <point x="1024" y="0" type="line"/>
      <point x="41" y="0" type="line"/>
    </contour>
    <contour>
      <point x="1823" y="2990" type="line"/>
      <point x="184" y="2990" type="line"/>
      <point x="184" y="3072" type="line"/>
      <point x="1823" y="3072" type="line"/>
    </contour>
    <contour>
      <point x="3215" y="2990" type="line"/>
      <point x="2314" y="2990" type="line"/>
      <point x="2314" y="3072" type="line"/>
      <point x="3215" y="3072" type="line"/>
    </contour>
    <contour>
      <point x="3178" y="0" type="line"/>
      <point x="2195" y="0" type="line"/>
      <point x="430" y="3072" type="line"/>
      <point x="1397" y="3072" type="line"/>
    </contour>
  </outline>
</glyph>
<glyph name="asciicircum" format="2">
  <advance width="2232"/>
  <unicode hex="005E"/>
  <outline>
    <contour>
      <point x="1114" y="2961.49" type="line"/>
      <point x="457.424" y="2535.04" type="line"/>
      <point x="410" y="2580" type="line"/>
      <point x="983.488" y="3154" type="line"/>
      <point x="1249.49" y="3154" type="line"/>
      <point x="1822.51" y="2580" type="line"/>
      <point x="1775.6" y="2535.55" type="line"/>
    </contour>
  </outline>
</glyph>
<glyph name="grave" format="2">
  <advance width="1740"/>
  <unicode hex="0060"/>
  <outline>
    <contour>
      <point x="614" y="2785.49" type="line" smooth="yes"/>
      <point x="413.925" y="2747.74"/>
      <point x="225.488" y="2891.49"/>
      <point x="225.488" y="3092" type="curve" smooth="yes"/>
      <point x="225.488" y="3292.51"/>
      <point x="451.607" y="3477.93"/>
      <point x="655.488" y="3391.49" type="curve" smooth="yes"/>
      <point x="1506.56" y="3030.35" type="line"/>
      <point x="1496.42" y="2949.65" type="line"/>
    </contour>
  </outline>
</glyph>
<glyph name="a" format="2">
  <advance width="2615"/>
  <unicode hex="0061"/>
  <outline>
    <contour>
      <point x="2605" y="258" type="line"/>
      <point x="2511" y="53"/>
      <point x="2257" y="-41"/>
      <point x="1958" y="-41" type="curve" smooth="yes"/>
      <point x="1643" y="-41"/>
      <point x="1376" y="57"/>
      <point x="1376" y="340" type="curve" smooth="yes"/>
      <point x="1376" y="1249" type="line" smooth="yes"/>
      <point x="1376" y="1605"/>
      <point x="1250" y="1827"/>
      <point x="963" y="1827" type="curve" smooth="yes"/>
      <point x="865" y="1827"/>
      <point x="819" y="1819"/>
      <point x="766" y="1790" type="curve"/>
      <point x="922" y="1790"/>
      <point x="1151" y="1720"/>
      <point x="1151" y="1466" type="curve" smooth="yes"/>
      <point x="1151" y="1261"/>
      <point x="930" y="1110"/>
      <point x="705" y="1110" type="curve" smooth="yes"/>
      <point x="459" y="1110"/>
      <point x="287" y="1270"/>
      <point x="287" y="1458" type="curve" smooth="yes"/>
      <point x="287" y="1732"/>
      <point x="643" y="1917"/>
      <point x="1098" y="1917" type="curve" smooth="yes"/>
      <point x="1835" y="1917"/>
      <point x="2154" y="1663"/>
      <point x="2154" y="1249" type="curve" smooth="yes"/>
      <point x="2154" y="274" type="line" smooth="yes"/>
      <point x="2154" y="192"/>
      <point x="2208" y="131"/>
      <point x="2306" y="131" type="curve" smooth="yes"/>
      <point x="2380" y="131"/>
      <point x="2466" y="152"/>
      <point x="2544" y="291" type="curve"/>
    </contour>
    <contour>
      <point x="1040" y="1069" type="curve" smooth="yes"/>
      <point x="1589" y="1069" type="line"/>
      <point x="1589" y="987" type="line"/>
      <point x="1327" y="987" type="line" smooth="yes"/>
      <point x="1139" y="987"/>
      <point x="971" y="799"/>
      <point x="971" y="545" type="curve" smooth="yes"/>
      <point x="971" y="393"/>
      <point x="1008" y="270"/>
      <point x="1110" y="270" type="curve" smooth="yes"/>
      <point x="1180" y="270"/>
      <point x="1376" y="327"/>
      <point x="1376" y="741" type="curve"/>
      <point x="1438" y="741" type="line"/>
      <point x="1438" y="233"/>
      <point x="1151" y="-41"/>
      <point x="696" y="-41" type="curve" smooth="yes"/>
      <point x="372" y="-41"/>
      <point x="143" y="160"/>
      <point x="143" y="463" type="curve" smooth="yes"/>
      <point x="143" y="807"/>
      <point x="458" y="1069"/>
    </contour>
  </outline>
</glyph>
<glyph name="g" format="1">
  <advance width="2772"/>
  <unicode hex="0067"/>
  <outline>
    <contour>
      <point x="193" y="303" type="curve" smooth="yes"/>
      <point x="193" y="688"/>
      <point x="807" y="725"/>
      <point x="1196" y="725" type="curve"/>
      <point x="1188" y="688" type="line"/>
      <point x="1012" y="688"/>
      <point x="635" y="635"/>
      <point x="635" y="516" type="curve" smooth="yes"/>
      <point x="635" y="426"/>
      <point x="848" y="406"/>
      <point x="1073" y="406" type="curve" smooth="yes"/>
      <point x="1216" y="406"/>
      <point x="1372" y="410"/>
      <point x="1487" y="410" type="curve" smooth="yes"/>
      <point x="1794" y="410"/>
      <point x="2212" y="221"/>
      <point x="2212" y="-336" type="curve" smooth="yes"/>
      <point x="2212" y="-832"/>
      <point x="1802" y="-1065"/>
      <point x="1147" y="-1065" type="curve" smooth="yes"/>
      <point x="643" y="-1065"/>
      <point x="61" y="-942"/>
      <point x="61" y="-553" type="curve" smooth="yes"/>
      <point x="61" y="-180"/>
      <point x="553" y="-131"/>
      <point x="737" y="-131" type="curve" smooth="yes"/>
      <point x="778" y="-131" type="line"/>
      <point x="676" y="-184"/>
      <point x="655" y="-369"/>
      <point x="655" y="-418" type="curve" smooth="yes"/>
      <point x="655" y="-778"/>
      <point x="901" y="-963"/>
      <point x="1212" y="-963" type="curve" smooth="yes"/>
      <point x="1495" y="-963"/>
      <point x="1892" y="-938"/>
      <point x="1892" y="-602" type="curve" smooth="yes"/>
      <point x="1892" y="-381"/>
      <point x="1741" y="-242"/>
      <point x="1475" y="-242" type="curve" smooth="yes"/>
      <point x="1348" y="-242"/>
      <point x="1098" y="-242"/>
      <point x="1008" y="-242" type="curve" smooth="yes"/>
      <point x="639" y="-242"/>
      <point x="193" y="-74"/>
    </contour>
    <contour>
      <point x="963" y="1290" type="curve" smooth="yes"/>
      <point x="963" y="905"/>
      <point x="983" y="737"/>
      <point x="1102" y="737" type="curve" smooth="yes"/>
      <point x="1180" y="737"/>
      <point x="1241" y="905"/>
      <point x="1241" y="1290" type="curve" smooth="yes"/>
      <point x="1241" y="1675"/>
      <point x="1180" y="1843"/>
      <point x="1102" y="1843" type="curve" smooth="yes"/>
      <point x="1024" y="1843"/>
      <point x="963" y="1675"/>
    </contour>
    <contour>
      <point x="164" y="1290" type="curve" smooth="yes"/>
      <point x="164" y="1741"/>
      <point x="647" y="1925"/>
      <point x="1102" y="1925" type="curve" smooth="yes"/>
      <point x="1557" y="1925"/>
      <point x="2040" y="1741"/>
      <point x="2040" y="1290" type="curve" smooth="yes"/>
      <point x="2040" y="839"/>
      <point x="1557" y="655"/>
      <point x="1102" y="655" type="curve" smooth="yes"/>
      <point x="647" y="655"/>
      <point x="164" y="839"/>
    </contour>
    <contour>
      <point x="2507" y="1741" type="curve"/>
      <point x="2466" y="1807"/>
      <point x="2355" y="1823"/>
      <point x="2265" y="1823" type="curve" smooth="yes"/>
      <point x="2060" y="1823"/>
      <point x="1843" y="1728"/>
      <point x="1761" y="1372" type="curve"/>
      <point x="1692" y="1421" type="line"/>
      <point x="1774" y="1794"/>
      <point x="2019" y="1905"/>
      <point x="2265" y="1905" type="curve" smooth="yes"/>
      <point x="2597" y="1905"/>
      <point x="2732" y="1667"/>
      <point x="2732" y="1511" type="curve" smooth="yes"/>
      <point x="2732" y="1245"/>
      <point x="2564" y="1163"/>
      <point x="2421" y="1163" type="curve" smooth="yes"/>
      <point x="2278" y="1163"/>
      <point x="2114" y="1253"/>
      <point x="2114" y="1470" type="curve" smooth="yes"/>
      <point x="2114" y="1626"/>
      <point x="2216" y="1765"/>
      <point x="2392" y="1765" type="curve" smooth="yes"/>
      <point x="2458" y="1765"/>
      <point x="2491" y="1749"/>
    </contour>
  </outline>
</glyph>
<glyph name="l" format="2">
  <advance width="1638"/>
  <unicode hex="006C"/>
  <outline>
    <contour>
      <point x="61" y="82" type="line"/>
      <point x="1577" y="82" type="line"/>
      <point x="1577" y="0" type="line"/>
      <point x="61" y="0" type="line"/>
    </contour>
    <contour>
      <point x="430" y="2990" type="line"/>
      <point x="61" y="2990" type="line"/>
      <point x="61" y="3072" type="line"/>
      <point x="1208" y="3072" type="line"/>
      <point x="1208" y="0" type="line"/>
      <point x="430" y="0" type="line"/>
    </contour>
  </outline>
</glyph>
<glyph name="m" format="1">
  <advance width="3809"/>
  <unicode hex="006D"/>
  <outline>
    <contour>
      <point x="2294" y="1307" type="curve" smooth="yes"/>
      <point x="2294" y="0" type="line"/>
      <point x="1516" y="0" type="line"/>
      <point x="1516" y="1262" type="line" smooth="yes"/>
      <point x="1516" y="1606"/>
      <point x="1512" y="1700"/>
      <point x="1430" y="1700" type="curve" smooth="yes"/>
      <point x="1295" y="1700"/>
      <point x="1126" y="1335"/>
      <point x="1126" y="913" type="curve"/>
      <point x="1065" y="913" type="line"/>
      <point x="1065" y="1331"/>
      <point x="1167" y="1925"/>
      <point x="1753" y="1925" type="curve" smooth="yes"/>
      <point x="2150" y="1925"/>
      <point x="2294" y="1663"/>
    </contour>
    <contour>
      <point x="61" y="82" type="line"/>
      <point x="1270" y="82" type="line"/>
      <point x="1270" y="0" type="line"/>
      <point x="61" y="0" type="line"/>
    </contour>
    <contour>
      <point x="1372" y="82" type="line"/>
      <point x="2437" y="82" type="line"/>
      <point x="2437" y="0" type="line"/>
      <point x="1372" y="0" type="line"/>
    </contour>
    <contour>
      <point x="2540" y="82" type="line"/>
      <point x="3748" y="82" type="line"/>
      <point x="3748" y="0" type="line"/>
      <point x="2540" y="0" type="line"/>
    </contour>
    <contour>
      <point x="348" y="1802" type="line"/>
      <point x="61" y="1802" type="line"/>
      <point x="61" y="1884" type="line"/>
      <point x="1126" y="1884" type="line"/>
      <point x="1126" y="0" type="line"/>
      <point x="348" y="0" type="line"/>
    </contour>
    <contour>
      <point x="3461" y="1307" type="curve" smooth="yes"/>
      <point x="3461" y="0" type="line"/>
      <point x="2683" y="0" type="line"/>
      <point x="2683" y="1262" type="line" smooth="yes"/>
      <point x="2683" y="1606"/>
      <point x="2683" y="1700"/>
      <point x="2597" y="1700" type="curve" smooth="yes"/>
      <point x="2462" y="1700"/>
      <point x="2294" y="1335"/>
      <point x="2294" y="913" type="curve"/>
      <point x="2241" y="913" type="line"/>
      <point x="2241" y="1331"/>
      <point x="2310" y="1925"/>
      <point x="2920" y="1925" type="curve" smooth="yes"/>
      <point x="3317" y="1925"/>
      <point x="3461" y="1663"/>
    </contour>
  </outline>
</glyph>
<glyph name="r" format="1">
  <advance width="2240"/>
  <unicode hex="0072"/>
  <outline>
    <contour>
      <point x="1835" y="1798" type="curve"/>
      <point x="1782" y="1823"/>
      <point x="1699" y="1831"/>
      <point x="1638" y="1831" type="curve" smooth="yes"/>
      <point x="1249" y="1831"/>
      <point x="1126" y="1314"/>
      <point x="1126" y="913" type="curve"/>
      <point x="1065" y="913" type="line"/>
      <point x="1065" y="1413"/>
      <point x="1142" y="1925"/>
      <point x="1679" y="1925" type="curve" smooth="yes"/>
      <point x="1949" y="1925"/>
      <point x="2220" y="1713"/>
      <point x="2220" y="1389" type="curve" smooth="yes"/>
      <point x="2220" y="1147"/>
      <point x="2057" y="934"/>
      <point x="1778" y="934" type="curve" smooth="yes"/>
      <point x="1520" y="934"/>
      <point x="1331" y="1110"/>
      <point x="1331" y="1364" type="curve" smooth="yes"/>
      <point x="1331" y="1606"/>
      <point x="1524" y="1798"/>
    </contour>
    <contour>
      <point x="61" y="82" type="line"/>
      <point x="1413" y="82" type="line"/>
      <point x="1413" y="0" type="line"/>
      <point x="61" y="0" type="line"/>
    </contour>
    <contour>
      <point x="348" y="1802" type="line"/>
      <point x="61" y="1802" type="line"/>
      <point x="61" y="1884" type="line"/>
      <point x="1126" y="1884" type="line"/>
      <point x="1126" y="0" type="line"/>
      <point x="348" y="0" type="line"/>
    </contour>
  </outline>
</glyph>
<glyph name="s" format="1">
  <advance width="1925"/>
  <unicode hex="0073"/>
  <outline>
    <contour>
      <point x="1593" y="1434" type="curve"/>
      <point x="1511.36" y="1544.79"/>
      <point x="1418.15" y="1641.11"/>
      <point x="1331" y="1745" type="curve"/>
      <point x="1626" y="1925" type="line"/>
      <point x="1688" y="1925" type="line"/>
      <point x="1688" y="1352" type="line"/>
      <point x="1606" y="1352" type="line"/>
      <point x="1605.03" y="1379.33"/>
      <point x="1600.21" y="1406.67"/>
    </contour>
    <contour>
      <point x="1667" y="1352" type="curve"/>
      <point x="1606" y="1352" type="line"/>
      <point x="1442" y="1569"/>
      <point x="1225" y="1831"/>
      <point x="893" y="1831" type="curve" smooth="yes"/>
      <point x="778" y="1831"/>
      <point x="553" y="1795"/>
      <point x="553" y="1602" type="curve" smooth="yes"/>
      <point x="553" y="1315"/>
      <point x="1823" y="1434"/>
      <point x="1823" y="623" type="curve" smooth="yes"/>
      <point x="1823" y="136"/>
      <point x="1396" y="-41"/>
      <point x="1040" y="-41" type="curve" smooth="yes"/>
      <point x="614" y="-41"/>
      <point x="348" y="213"/>
      <point x="164" y="655" type="curve"/>
      <point x="225" y="655" type="line"/>
      <point x="430" y="274"/>
      <point x="708" y="49"/>
      <point x="999" y="49" type="curve" smooth="yes"/>
      <point x="1204" y="49"/>
      <point x="1442" y="98"/>
      <point x="1442" y="266" type="curve" smooth="yes"/>
      <point x="1442" y="540"/>
      <point x="193" y="446"/>
      <point x="193" y="1290" type="curve" smooth="yes"/>
      <point x="193" y="1675"/>
      <point x="500" y="1921"/>
      <point x="889" y="1921" type="curve" smooth="yes"/>
      <point x="1290" y="1921"/>
      <point x="1503" y="1622"/>
    </contour>
    <contour>
      <point x="205" y="-41" type="line"/>
      <point x="143" y="-41" type="line"/>
      <point x="143" y="655" type="line"/>
      <point x="225" y="655" type="line"/>
      <point x="221.683" y="614.423"/>
      <point x="220.364" y="571.181"/>
      <point x="225" y="520" type="curve"/>
      <point x="315.391" y="381.366"/>
      <point x="407.789" y="282.542"/>
      <point x="500" y="180" type="curve"/>
    </contour>
  </outline>
</glyph>
<glyph name="t" format="2">
  <advance width="1658"/>
  <unicode hex="0074"/>
  <outline>
    <contour>
      <point x="20" y="1884" type="line"/>
      <point x="1536" y="1884" type="line"/>
      <point x="1536" y="1802" type="line"/>
      <point x="20" y="1802" type="line"/>
    </contour>
    <contour>
      <point x="1659" y="418" type="line"/>
      <point x="1561" y="156"/>
      <point x="1311" y="-29"/>
      <point x="897" y="-29" type="curve" smooth="yes"/>
      <point x="438" y="-29"/>
      <point x="319" y="148"/>
      <point x="319" y="496" type="curve" smooth="yes"/>
      <point x="319" y="2294" type="line"/>
      <point x="565" y="2294"/>
      <point x="893" y="2315"/>
      <point x="1098" y="2417" type="curve"/>
      <point x="1098" y="463" type="line" smooth="yes"/>
      <point x="1098" y="258"/>
      <point x="1142" y="164"/>
      <point x="1253" y="164" type="curve" smooth="yes"/>
      <point x="1368" y="164"/>
      <point x="1511" y="266"/>
      <point x="1585" y="446" type="curve"/>
    </contour>
  </outline>
</glyph>
<glyph name="v" format="1">
  <advance width="2453"/>
  <unicode hex="0076"/>
  <outline>
    <contour>
      <point x="2474" y="1802" type="line"/>
      <point x="1679" y="1802" type="line"/>
      <point x="1679" y="1884" type="line"/>
      <point x="2474" y="1884" type="line"/>
    </contour>
    <contour>
      <point x="1376" y="1802" type="line"/>
      <point x="-20" y="1802" type="line"/>
      <point x="-20" y="1884" type="line"/>
      <point x="1376" y="1884" type="line"/>
    </contour>
    <contour>
      <point x="1556" y="561" type="line"/>
      <point x="2081" y="1884" type="line"/>
      <point x="2191" y="1884" type="line"/>
      <point x="1421" y="-41" type="line"/>
      <point x="1036" y="-41" type="line"/>
      <point x="246" y="1884" type="line"/>
      <point x="1106" y="1884" type="line"/>
    </contour>
  </outline>
</glyph>
<glyph name="asciitilde" format="2">
  <advance width="2818"/>
  <unicode hex="007E"/>
  <outline>
    <contour>
      <point x="835.568" y="1667.49" type="curve" smooth="yes"/>
      <point x="628.32" y="1667.49"/>
      <point x="490.704" y="1576.51"/>
      <point x="490.704" y="1404.51" type="curve"/>
      <point x="410" y="1404.51" type="line"/>
      <point x="410" y="1876"/>
      <point x="614" y="2212"/>
      <point x="1020" y="2212" type="curve" smooth="yes"/>
      <point x="1470.51" y="2212"/>
      <point x="1527.94" y="1826.51"/>
      <point x="1940.94" y="1826.51" type="curve" smooth="yes"/>
      <point x="2188.7" y="1826.51"/>
      <point x="2327.81" y="1916.51"/>
      <point x="2327.81" y="2088.51" type="curve"/>
      <point x="2408" y="2088.51" type="line"/>
      <point x="2408" y="1617.02"/>
      <point x="2204" y="1282"/>
      <point x="1798" y="1282" type="curve" smooth="yes"/>
      <point x="1278" y="1282"/>
      <point x="1277.09" y="1667.49"/>
    </contour>
  </outline>
</glyph>
<glyph name="sterling" format="2">
  <advance width="2813"/>
  <unicode hex="00A3"/>
  <outline>
    <contour>
      <point x="2712" y="1135" type="line"/>
      <point x="2712" y="131"/>
      <point x="2461" y="-123"/>
      <point x="1892" y="-123" type="curve" smooth="yes"/>
      <point x="1331" y="-123"/>
      <point x="1024" y="123"/>
      <point x="766" y="123" type="curve" smooth="yes"/>
      <point x="598" y="123"/>
      <point x="418" y="41"/>
      <point x="377" y="-82" type="curve"/>
      <point x="332" y="-82" type="line"/>
      <point x="373" y="221"/>
      <point x="856" y="889"/>
      <point x="1319" y="889" type="curve" smooth="yes"/>
      <point x="1647" y="889"/>
      <point x="1811" y="750"/>
      <point x="2040" y="750" type="curve" smooth="yes"/>
      <point x="2298" y="750"/>
      <point x="2630" y="799"/>
      <point x="2630" y="1135" type="curve"/>
    </contour>
    <contour>
      <point x="1905" y="1659" type="line"/>
      <point x="1905" y="1577" type="line"/>
      <point x="61" y="1577" type="line"/>
      <point x="61" y="1659" type="line"/>
    </contour>
    <contour>
      <point x="319" y="2253" type="curve" smooth="yes"/>
      <point x="319" y="2826"/>
      <point x="791" y="3113"/>
      <point x="1573" y="3113" type="curve" smooth="yes"/>
      <point x="2237" y="3113"/>
      <point x="2671" y="2675"/>
      <point x="2671" y="2339" type="curve" smooth="yes"/>
      <point x="2671" y="2048"/>
      <point x="2486" y="1819"/>
      <point x="2220" y="1819" type="curve" smooth="yes"/>
      <point x="1954" y="1819"/>
      <point x="1704" y="2007"/>
      <point x="1704" y="2294" type="curve" smooth="yes"/>
      <point x="1704" y="2560"/>
      <point x="1941" y="2765"/>
      <point x="2183" y="2765" type="curve" smooth="yes"/>
      <point x="2277" y="2765"/>
      <point x="2319" y="2736"/>
      <point x="2335" y="2732" type="curve"/>
      <point x="2212" y="2843"/>
      <point x="1958" y="2986"/>
      <point x="1737" y="2986" type="curve" smooth="yes"/>
      <point x="1454" y="2986"/>
      <point x="1266" y="2884"/>
      <point x="1266" y="2499" type="curve" smooth="yes"/>
      <point x="1266" y="2093"/>
      <point x="1495" y="1986"/>
      <point x="1495" y="1597" type="curve" smooth="yes"/>
      <point x="1495" y="819"/>
      <point x="324" y="840"/>
      <point x="377" y="-82" type="curve"/>
      <point x="295" y="-82" type="line"/>
      <point x="217" y="487"/>
      <point x="651" y="807"/>
      <point x="651" y="1069" type="curve" smooth="yes"/>
      <point x="651" y="1536"/>
      <point x="319" y="1782"/>
    </contour>
  </outline>
</glyph>
<glyph name="mu" format="1">
  <advance width="2723"/>
  <unicode hex="00B5"/>
  <outline>
    <contour>
      <point x="1028" y="-504" type="curve" smooth="yes"/>
      <point x="1163" y="-504"/>
      <point x="1270" y="-622"/>
      <point x="1270" y="-778" type="curve" smooth="yes"/>
      <point x="1270" y="-938"/>
      <point x="1184" y="-1065"/>
      <point x="885" y="-1065" type="curve" smooth="yes"/>
      <point x="598" y="-1065"/>
      <point x="352" y="-865"/>
      <point x="352" y="-496" type="curve" smooth="yes"/>
      <point x="352" y="1315" type="line"/>
      <point x="434" y="1315" type="line"/>
      <point x="434" y="-496" type="line" smooth="yes"/>
      <point x="434" y="-832"/>
      <point x="627" y="-974"/>
      <point x="897" y="-999" type="curve"/>
      <point x="897" y="-999" type="line"/>
      <point x="786" y="-905"/>
      <point x="786" y="-795"/>
      <point x="786" y="-721" type="curve" smooth="yes"/>
      <point x="786" y="-586"/>
      <point x="893" y="-504"/>
    </contour>
    <component base="u"/>
  </outline>
</glyph>
<glyph name="threequarters" format="2">
  <advance width="3116"/>
  <unicode hex="00BE"/>
  <outline>
    <contour>
      <point x="2395.07" y="2662" type="line"/>
      <point x="2476.8" y="2662" type="line"/>
      <point x="496.848" y="-410" type="line"/>
      <point x="415.12" y="-410" type="line"/>
    </contour>
    <component base="three" xScale="0.6" yScale="0.6" xOffset="20" yOffset="1450"/>
    <component base="four" xScale="0.6" yScale="0.6" xOffset="1352" yOffset="-422"/>
  </outline>
</glyph>
<glyph name="germandbls" format="2">
  <advance width="3526"/>
  <unicode hex="00DF"/>
  <outline>
    <contour>
      <point x="1896" y="1647.86" type="curve"/>
      <point x="1896" y="1698.86" type="line"/>
      <point x="2260.51" y="1698.86"/>
      <point x="2334.51" y="2076.51"/>
      <point x="2334.51" y="2338.51" type="curve" smooth="yes"/>
      <point x="2334.51" y="2633.02"/>
      <point x="2240.98" y="3036"/>
      <point x="1855.49" y="3036" type="curve" smooth="yes"/>
      <point x="1388.98" y="3036"/>
      <point x="1290" y="2552"/>
      <point x="1290" y="1970" type="curve" smooth="yes"/>
      <point x="1290" y="0" type="line"/>
      <point x="430" y="0" type="line"/>
      <point x="430" y="2011.49" type="line" smooth="yes"/>
      <point x="430" y="2802"/>
      <point x="1228" y="3112.51"/>
      <point x="1896" y="3112.51" type="curve" smooth="yes"/>
      <point x="2482" y="3112.51"/>
      <point x="3240" y="2884"/>
      <point x="3240" y="2380" type="curve" smooth="yes"/>
      <point x="3240" y="1888"/>
      <point x="2719.49" y="1647.86"/>
    </contour>
    <contour>
      <point x="61.488" y="80.704" type="line"/>
      <point x="1622.67" y="80.704" type="line"/>
      <point x="1622.67" y="0" type="line"/>
      <point x="61.488" y="0" type="line"/>
    </contour>
    <contour>
      <point x="3362.51" y="778" type="curve" smooth="yes"/>
      <point x="3362.51" y="204.512"/>
      <point x="2794" y="-40.512"/>
      <point x="2216" y="-40.512" type="curve" smooth="yes"/>
      <point x="1761.49" y="-40.512"/>
      <point x="1446" y="262"/>
      <point x="1446" y="720.512" type="curve" smooth="yes"/>
      <point x="1446" y="1011.02"/>
      <point x="1679.02" y="1150.51"/>
      <point x="1904.51" y="1150.51" type="curve" smooth="yes"/>
      <point x="2109.02" y="1150.51"/>
      <point x="2330.51" y="1028"/>
      <point x="2330.51" y="758" type="curve" smooth="yes"/>
      <point x="2330.51" y="504"/>
      <point x="2092.51" y="368.512"/>
      <point x="1892" y="368.512" type="curve" smooth="yes"/>
      <point x="1752.1" y="368.512"/>
      <point x="1612.56" y="440.512"/>
      <point x="1576.98" y="549.28" type="curve"/>
      <point x="1623.47" y="250.736"/>
      <point x="1861.97" y="58.848"/>
      <point x="2114" y="58.848" type="curve" smooth="yes"/>
      <point x="2396.51" y="58.848"/>
      <point x="2458" y="393.488"/>
      <point x="2458" y="655.488" type="curve" smooth="yes"/>
      <point x="2458" y="1040.98"/>
      <point x="2424" y="1620.21"/>
      <point x="1896" y="1620.21" type="curve"/>
      <point x="1896" y="1670.7" type="line"/>
      <point x="2883.49" y="1670.7"/>
      <point x="3362.51" y="1310"/>
    </contour>
  </outline>
</glyph>
<glyph name="eth" format="2">
  <advance width="2702"/>
  <unicode hex="00F0"/>
  <outline>
    <contour>
      <point x="614" y="2580" type="line"/>
      <point x="2540" y="2580" type="line"/>
      <point x="2540" y="2499.81" type="line"/>
      <point x="614" y="2499.81" type="line"/>
    </contour>
    <contour>
      <point x="2498.51" y="1270" type="curve" smooth="yes"/>
      <point x="2498.51" y="410"/>
      <point x="1994" y="-40.512"/>
      <point x="1294" y="-40.512" type="curve" smooth="yes"/>
      <point x="594" y="-40.512"/>
      <point x="122.512" y="410"/>
      <point x="122.512" y="1024" type="curve" smooth="yes"/>
      <point x="122.512" y="1720"/>
      <point x="646.512" y="2028"/>
      <point x="1142.51" y="2028" type="curve" smooth="yes"/>
      <point x="1537.49" y="2028"/>
      <point x="1625.44" y="1666.51"/>
      <point x="1625.44" y="1146.51" type="curve"/>
      <point x="1556" y="1146.51" type="line"/>
      <point x="1556" y="1760.51"/>
      <point x="1430.48" y="1893.2"/>
      <point x="1294.99" y="1893.2" type="curve" smooth="yes"/>
      <point x="1134.99" y="1893.2"/>
      <point x="1064.51" y="1778"/>
      <point x="1064.51" y="1024" type="curve" smooth="yes"/>
      <point x="1064.51" y="352"/>
      <point x="1081.49" y="40.192"/>
      <point x="1282" y="40.192" type="curve" smooth="yes"/>
      <point x="1482.51" y="40.192"/>
      <point x="1556" y="392.512"/>
      <point x="1556" y="1146.51" type="curve"/>
      <point x="1568.7" y="1435.97" type="line"/>
      <point x="1568.7" y="2140.48"/>
      <point x="1184" y="3037.95"/>
      <point x="430" y="3037.95" type="curve"/>
      <point x="430" y="3112.51" type="line"/>
      <point x="1626" y="3112.51"/>
      <point x="2498.51" y="2339.49"/>
    </contour>
  </outline>
</glyph>
<glyph name="dotlessi" format="2">
  <advance width="1514"/>
  <unicode hex="0131"/>
  <outline>
    <contour>
      <point x="82" y="80.704" type="line"/>
      <point x="1434" y="80.704" type="line"/>
      <point x="1434" y="0" type="line"/>
      <point x="82" y="0" type="line"/>
    </contour>
    <contour>
      <point x="368.512" y="1803.3" type="line"/>
      <point x="82" y="1803.3" type="line"/>
      <point x="82" y="1884" type="line"/>
      <point x="1146.51" y="1884" type="line"/>
      <point x="1146.51" y="0" type="line"/>
      <point x="368.512" y="0" type="line"/>
    </contour>
  </outline>
</glyph>
<glyph name="lslash" format="2">
  <advance width="1638"/>
  <unicode hex="0142"/>
  <outline>
    <contour>
      <point x="50.752" y="1474.51" type="line"/>
      <point x="1628.24" y="2376" type="line"/>
      <point x="1628.24" y="2284.03" type="line"/>
      <point x="50.752" y="1382.54" type="line"/>
    </contour>
    <component base="l"/>
  </outline>
</glyph>
<glyph name="uni0237" format="1">
  <advance width="1503"/>
  <unicode hex="0237"/>
  <outline>
    <contour>
      <point x="1208" y="1884" type="line"/>
      <point x="1208" y="-49" type="line" smooth="yes"/>
      <point x="1208" y="-586"/>
      <point x="688" y="-1065"/>
      <point x="74" y="-1065" type="curve" smooth="yes"/>
      <point x="-340" y="-1065"/>
      <point x="-676" y="-872"/>
      <point x="-676" y="-557" type="curve" smooth="yes"/>
      <point x="-676" y="-307"/>
      <point x="-484" y="-119"/>
      <point x="-238" y="-119" type="curve" smooth="yes"/>
      <point x="-13" y="-119"/>
      <point x="197" y="-258"/>
      <point x="197" y="-504" type="curve" smooth="yes"/>
      <point x="197" y="-750"/>
      <point x="37" y="-897"/>
      <point x="-266" y="-897" type="curve" smooth="yes"/>
      <point x="-278" y="-897"/>
      <point x="-295" y="-897"/>
      <point x="-295" y="-897" type="curve"/>
      <point x="-250" y="-917"/>
      <point x="-168" y="-967"/>
      <point x="12" y="-967" type="curve" smooth="yes"/>
      <point x="504" y="-967"/>
      <point x="430" y="-438"/>
      <point x="430" y="82" type="curve" smooth="yes"/>
      <point x="430" y="1802" type="line"/>
      <point x="61" y="1802" type="line"/>
      <point x="61" y="1884" type="line"/>
    </contour>
  </outline>
</glyph>
<glyph name="pi" format="2">
  <advance width="2788"/>
  <unicode hex="03C0"/>
  <outline>
    <contour>
      <point x="2646" y="422" type="line"/>
      <point x="2552" y="135.488"/>
      <point x="2379.02" y="-40.512"/>
      <point x="1998.51" y="-40.512" type="curve" smooth="yes"/>
      <point x="1642.51" y="-40.512"/>
      <point x="1417.49" y="98"/>
      <point x="1417.49" y="380.512" type="curve" smooth="yes"/>
      <point x="1417.49" y="1720" type="line"/>
      <point x="2195.49" y="1720" type="line"/>
      <point x="2195.49" y="367.312" type="line" smooth="yes"/>
      <point x="2195.49" y="285.312"/>
      <point x="2236.8" y="205.648"/>
      <point x="2355.3" y="205.648" type="curve" smooth="yes"/>
      <point x="2442.96" y="205.648"/>
      <point x="2504.1" y="270.848"/>
      <point x="2582.1" y="456.208" type="curve"/>
    </contour>
    <contour>
      <point x="590" y="-40.512" type="curve" smooth="yes"/>
      <point x="340" y="-40.512"/>
      <point x="143.488" y="94"/>
      <point x="143.488" y="319.488" type="curve" smooth="yes"/>
      <point x="143.488" y="802.976"/>
      <point x="970.512" y="540.512"/>
      <point x="970.512" y="1142.51" type="curve" smooth="yes"/>
      <point x="970.512" y="1843.49" type="line"/>
      <point x="1200" y="1843.49" type="line"/>
      <point x="1200" y="995.488" type="line" smooth="yes"/>
      <point x="1200" y="348"/>
      <point x="991.488" y="-40.512"/>
    </contour>
    <contour>
      <point x="2564" y="1884" type="line"/>
      <point x="2564" y="1106" type="line"/>
      <point x="248.704" y="1106" type="line"/>
      <point x="248.704" y="798.512" type="line"/>
      <point x="168" y="798.512" type="line"/>
      <point x="168" y="1884" type="line"/>
    </contour>
  </outline>
</glyph>
<glyph name="uni2116" format="2">
  <advance width="4938"/>
  <unicode hex="2116"/>
  <outline>
    <contour>
      <point x="3788.51" y="2334.51" type="curve" smooth="yes"/>
      <point x="3788.51" y="1868"/>
      <point x="3850" y="1601.89"/>
      <point x="4010" y="1601.89" type="curve" smooth="yes"/>
      <point x="4170" y="1601.89"/>
      <point x="4231.49" y="1868"/>
      <point x="4231.49" y="2334.51" type="curve" smooth="yes"/>
      <point x="4231.49" y="2801.02"/>
      <point x="4170" y="3066.62"/>
      <point x="4010" y="3066.62" type="curve" smooth="yes"/>
      <point x="3850" y="3066.62"/>
      <point x="3788.51" y="2801.02"/>
    </contour>
    <contour>
      <point x="3194.51" y="2334.51" type="curve" smooth="yes"/>
      <point x="3194.51" y="2866.51"/>
      <point x="3555.49" y="3112.51"/>
      <point x="4010" y="3112.51" type="curve" smooth="yes"/>
      <point x="4464.51" y="3112.51"/>
      <point x="4825.49" y="2866.51"/>
      <point x="4825.49" y="2334.51" type="curve" smooth="yes"/>
      <point x="4825.49" y="1802.51"/>
      <point x="4464.51" y="1556"/>
      <point x="4010" y="1556" type="curve" smooth="yes"/>
      <point x="3555.49" y="1556"/>
      <point x="3194.51" y="1802.51"/>
    </contour>
    <component base="hyphen" xOffset="3272.51" yOffset="164"/>
    <component base="N"/>
  </outline>
</glyph>
<glyph name="uniFB00" format="1">
  <advance width="3153"/>
  <unicode hex="FB00"/>
  <outline>
    <contour>
      <point x="41" y="82" type="line"/>
      <point x="3031" y="82" type="line"/>
      <point x="3031" y="0" type="line"/>
      <point x="41" y="0" type="line"/>
    </contour>
    <contour>
      <point x="41" y="1884" type="line"/>
      <point x="3113" y="1884" type="line"/>
      <point x="3113" y="1802" type="line"/>
      <point x="41" y="1802" type="line"/>
    </contour>
    <contour>
      <point x="1982" y="2720" type="curve"/>
      <point x="1929" y="2761"/>
      <point x="1819" y="2814"/>
      <point x="1667" y="2814" type="curve" smooth="yes"/>
      <point x="1339" y="2814"/>
      <point x="1147" y="2527"/>
      <point x="1147" y="2007" type="curve" smooth="yes"/>
      <point x="1147" y="0" type="line"/>
      <point x="410" y="0" type="line"/>
      <point x="410" y="1892" type="line" smooth="yes"/>
      <point x="410" y="2510"/>
      <point x="930" y="2908"/>
      <point x="1626" y="2908" type="curve" smooth="yes"/>
      <point x="1999" y="2908"/>
      <point x="2294" y="2654"/>
      <point x="2294" y="2380" type="curve" smooth="yes"/>
      <point x="2294" y="2130"/>
      <point x="2142" y="1962"/>
      <point x="1896" y="1962" type="curve" smooth="yes"/>
      <point x="1671" y="1962"/>
      <point x="1462" y="2101"/>
      <point x="1462" y="2347" type="curve" smooth="yes"/>
      <point x="1462" y="2593"/>
      <point x="1622" y="2753"/>
      <point x="1843" y="2753" type="curve" smooth="yes"/>
      <point x="1941" y="2753"/>
      <point x="1982" y="2720"/>
    </contour>
    <contour>
      <point x="3342" y="2925" type="curve"/>
      <point x="3289" y="2966"/>
      <point x="3171" y="3027"/>
      <point x="3019" y="3027" type="curve" smooth="yes"/>
      <point x="2691" y="3027"/>
      <point x="2540" y="2732"/>
      <point x="2540" y="2212" type="curve" smooth="yes"/>
      <point x="2540" y="0" type="line"/>
      <point x="1802" y="0" type="line"/>
      <point x="1802" y="2097" type="line" smooth="yes"/>
      <point x="1802" y="2715"/>
      <point x="2323" y="3113"/>
      <point x="2978" y="3113" type="curve" smooth="yes"/>
      <point x="3351" y="3113"/>
      <point x="3604" y="2859"/>
      <point x="3604" y="2585" type="curve" smooth="yes"/>
      <point x="3604" y="2335"/>
      <point x="3453" y="2167"/>
      <point x="3207" y="2167" type="curve" smooth="yes"/>
      <point x="2982" y="2167"/>
      <point x="2773" y="2306"/>
      <point x="2773" y="2552" type="curve" smooth="yes"/>
      <point x="2773" y="2798"/>
      <point x="2933" y="2957"/>
      <point x="3154" y="2957" type="curve" smooth="yes"/>
      <point x="3252" y="2957"/>
      <point x="3342" y="2925"/>
    </contour>
  </outline>
</glyph>
<glyph name="uniFB02" format="1">
  <advance width="3194"/>
  <unicode hex="FB02"/>
  <outline>
    <contour>
      <point x="41" y="82" type="line"/>
      <point x="3133" y="82" type="line"/>
      <point x="3133" y="0" type="line"/>
      <point x="41" y="0" type="line"/>
    </contour>
    <contour>
      <point x="41" y="1884" type="line"/>
      <point x="1720" y="1884" type="line"/>
      <point x="1720" y="1802" type="line"/>
      <point x="41" y="1802" type="line"/>
    </contour>
    <contour>
      <point x="1987" y="2990" type="line"/>
      <point x="2765" y="3154" type="line"/>
      <point x="2765" y="0" type="line"/>
      <point x="1987" y="0" type="line"/>
    </contour>
    <contour>
      <point x="1954" y="2920" type="curve"/>
      <point x="1893" y="2961"/>
      <point x="1778" y="3031"/>
      <point x="1626" y="3031" type="curve" smooth="yes"/>
      <point x="1298" y="3031"/>
      <point x="1147" y="2732"/>
      <point x="1147" y="2212" type="curve" smooth="yes"/>
      <point x="1147" y="0" type="line"/>
      <point x="410" y="0" type="line"/>
      <point x="410" y="2097" type="line" smooth="yes"/>
      <point x="410" y="2715"/>
      <point x="930" y="3113"/>
      <point x="1585" y="3113" type="curve" smooth="yes"/>
      <point x="1958" y="3113"/>
      <point x="2212" y="2859"/>
      <point x="2212" y="2585" type="curve" smooth="yes"/>
      <point x="2212" y="2335"/>
      <point x="2061" y="2167"/>
      <point x="1815" y="2167" type="curve" smooth="yes"/>
      <point x="1590" y="2167"/>
      <point x="1380" y="2306"/>
      <point x="1380" y="2552" type="curve" smooth="yes"/>
      <point x="1380" y="2798"/>
      <point x="1540" y="2957"/>
      <point x="1761" y="2957" type="curve" smooth="yes"/>
      <point x="1859" y="2957"/>
      <point x="1954" y="2920"/>
    </contour>
  </outline>
</glyph>
<glyph name="uniFB03" format="1">
  <advance width="4177"/>
  <unicode hex="FB03"/>
  <outline>
    <contour>
      <point x="1720" y="2097" type="line" smooth="yes"/>
      <point x="1720" y="2756"/>
      <point x="2241" y="3113"/>
      <point x="3060" y="3113" type="curve" smooth="yes"/>
      <point x="3515" y="3113"/>
      <point x="3809" y="2859"/>
      <point x="3809" y="2585" type="curve" smooth="yes"/>
      <point x="3809" y="2335"/>
      <point x="3658" y="2167"/>
      <point x="3412" y="2167" type="curve" smooth="yes"/>
      <point x="3187" y="2167"/>
      <point x="2978" y="2306"/>
      <point x="2978" y="2552" type="curve" smooth="yes"/>
      <point x="2978" y="2798"/>
      <point x="3138" y="2949"/>
      <point x="3359" y="2949" type="curve" smooth="yes"/>
      <point x="3457" y="2949"/>
      <point x="3510" y="2916"/>
      <point x="3510" y="2916" type="curve"/>
      <point x="3444" y="2957"/>
      <point x="3293" y="3027"/>
      <point x="3060" y="3027" type="curve" smooth="yes"/>
      <point x="2609" y="3027"/>
      <point x="2458" y="2732"/>
      <point x="2458" y="2212" type="curve" smooth="yes"/>
      <point x="2458" y="0" type="line"/>
      <point x="1720" y="0" type="line"/>
    </contour>
    <contour>
      <point x="41" y="82" type="line"/>
      <point x="4096" y="82" type="line"/>
      <point x="4096" y="0" type="line"/>
      <point x="41" y="0" type="line"/>
    </contour>
    <contour>
      <point x="410" y="1892" type="line" smooth="yes"/>
      <point x="410" y="2506"/>
      <point x="930" y="2908"/>
      <point x="1626" y="2908" type="curve" smooth="yes"/>
      <point x="1999" y="2908"/>
      <point x="2294" y="2654"/>
      <point x="2294" y="2380" type="curve" smooth="yes"/>
      <point x="2294" y="2130"/>
      <point x="2142" y="1962"/>
      <point x="1896" y="1962" type="curve" smooth="yes"/>
      <point x="1671" y="1962"/>
      <point x="1462" y="2101"/>
      <point x="1462" y="2347" type="curve" smooth="yes"/>
      <point x="1462" y="2593"/>
      <point x="1622" y="2753"/>
      <point x="1843" y="2753" type="curve" smooth="yes"/>
      <point x="1941" y="2753"/>
      <point x="1982" y="2720"/>
      <point x="1982" y="2720" type="curve"/>
      <point x="1929" y="2761"/>
      <point x="1819" y="2814"/>
      <point x="1667" y="2814" type="curve" smooth="yes"/>
      <point x="1339" y="2814"/>
      <point x="1147" y="2527"/>
      <point x="1147" y="2007" type="curve" smooth="yes"/>
      <point x="1147" y="0" type="line"/>
      <point x="410" y="0" type="line"/>
    </contour>
    <contour>
      <point x="3031" y="1802" type="line"/>
      <point x="41" y="1802" type="line"/>
      <point x="41" y="1884" type="line"/>
      <point x="3809" y="1884" type="line"/>
      <point x="3809" y="0" type="line"/>
      <point x="3031" y="0" type="line"/>
    </contour>
  </outline>
</glyph>
<glyph name="uniFB04" format="1">
  <advance width="4587"/>
  <unicode hex="FB04"/>
  <outline>
    <contour>
      <point x="41" y="82" type="line"/>
      <point x="4526" y="82" type="line"/>
      <point x="4526" y="0" type="line"/>
      <point x="41" y="0" type="line"/>
    </contour>
    <contour>
      <point x="41" y="1884" type="line"/>
      <point x="3113" y="1884" type="line"/>
      <point x="3113" y="1802" type="line"/>
      <point x="41" y="1802" type="line"/>
    </contour>
    <contour>
      <point x="3379" y="2990" type="line"/>
      <point x="4157" y="3154" type="line"/>
      <point x="4157" y="0" type="line"/>
      <point x="3379" y="0" type="line"/>
    </contour>
    <contour>
      <point x="1982" y="2720" type="curve"/>
      <point x="1929" y="2761"/>
      <point x="1819" y="2814"/>
      <point x="1667" y="2814" type="curve" smooth="yes"/>
      <point x="1339" y="2814"/>
      <point x="1147" y="2527"/>
      <point x="1147" y="2007" type="curve" smooth="yes"/>
      <point x="1147" y="0" type="line"/>
      <point x="410" y="0" type="line"/>
      <point x="410" y="1892" type="line" smooth="yes"/>
      <point x="410" y="2506"/>
      <point x="930" y="2908"/>
      <point x="1626" y="2908" type="curve" smooth="yes"/>
      <point x="1999" y="2908"/>
      <point x="2294" y="2654"/>
      <point x="2294" y="2380" type="curve" smooth="yes"/>
      <point x="2294" y="2130"/>
      <point x="2142" y="1962"/>
      <point x="1896" y="1962" type="curve" smooth="yes"/>
      <point x="1671" y="1962"/>
      <point x="1462" y="2101"/>
      <point x="1462" y="2347" type="curve" smooth="yes"/>
      <point x="1462" y="2593"/>
      <point x="1622" y="2753"/>
      <point x="1843" y="2753" type="curve" smooth="yes"/>
      <point x="1941" y="2753"/>
      <point x="1982" y="2720"/>
    </contour>
    <contour>
      <point x="3346" y="2920" type="curve"/>
      <point x="3285" y="2961"/>
      <point x="3171" y="3031"/>
      <point x="3019" y="3031" type="curve" smooth="yes"/>
      <point x="2691" y="3031"/>
      <point x="2540" y="2732"/>
      <point x="2540" y="2212" type="curve" smooth="yes"/>
      <point x="2540" y="0" type="line"/>
      <point x="1802" y="0" type="line"/>
      <point x="1802" y="2097" type="line" smooth="yes"/>
      <point x="1802" y="2715"/>
      <point x="2323" y="3113"/>
      <point x="2978" y="3113" type="curve" smooth="yes"/>
      <point x="3351" y="3113"/>
      <point x="3604" y="2859"/>
      <point x="3604" y="2585" type="curve" smooth="yes"/>
      <point x="3604" y="2335"/>
      <point x="3453" y="2167"/>
      <point x="3207" y="2167" type="curve" smooth="yes"/>
      <point x="2982" y="2167"/>
      <point x="2773" y="2306"/>
      <point x="2773" y="2552" type="curve" smooth="yes"/>
      <point x="2773" y="2798"/>
      <point x="2933" y="2957"/>
      <point x="3154" y="2957" type="curve" smooth="yes"/>
      <point x="3252" y="2957"/>
      <point x="3346" y="2920"/>
    </contour>
  </outline>
</glyph>
<glyph name="J.alt" format="1">
  <advance width="2973"/>
  <outline>
    <contour>
      <point x="1090" y="3072" type="line"/>
      <point x="2912" y="3072" type="line"/>
      <point x="2912" y="2990" type="line"/>
      <point x="1090" y="2990" type="line"/>
    </contour>
    <contour>
      <point x="1622" y="3072" type="line"/>
      <point x="2503" y="3072" type="line"/>
      <point x="2503" y="696" type="line"/>
      <point x="2257" y="204"/>
      <point x="1892" y="-123"/>
      <point x="1110" y="-123" type="curve" smooth="yes"/>
      <point x="508" y="-123"/>
      <point x="61" y="307"/>
      <point x="61" y="758" type="curve" smooth="yes"/>
      <point x="61" y="1135"/>
      <point x="336" y="1352"/>
      <point x="623" y="1352" type="curve" smooth="yes"/>
      <point x="889" y="1352"/>
      <point x="1098" y="1155"/>
      <point x="1098" y="864" type="curve" smooth="yes"/>
      <point x="1098" y="598"/>
      <point x="893" y="377"/>
      <point x="594" y="377" type="curve" smooth="yes"/>
      <point x="430" y="377"/>
      <point x="319" y="446"/>
      <point x="213" y="532" type="curve"/>
      <point x="291" y="249"/>
      <point x="635" y="-33"/>
      <point x="1028" y="-33" type="curve" smooth="yes"/>
      <point x="1401" y="-33"/>
      <point x="1622" y="205"/>
      <point x="1622" y="778" type="curve" smooth="yes"/>
    </contour>
  </outline>
</glyph>
<glyph name="R.alt" format="1">
  <advance width="3194"/>
  <outline>
    <contour>
      <point x="1577" y="1565" type="curve" smooth="yes"/>
      <point x="799" y="1565" type="line"/>
      <point x="799" y="1618" type="line"/>
      <point x="1372" y="1618" type="line" smooth="yes"/>
      <point x="1765" y="1618"/>
      <point x="1946" y="1786"/>
      <point x="1946" y="2314" type="curve" smooth="yes"/>
      <point x="1946" y="2842"/>
      <point x="1765" y="2990"/>
      <point x="1372" y="2990" type="curve" smooth="yes"/>
      <point x="61" y="2990" type="line"/>
      <point x="61" y="3072" type="line"/>
      <point x="1577" y="3072" type="line" smooth="yes"/>
      <point x="2318" y="3072"/>
      <point x="2847" y="2846"/>
      <point x="2847" y="2314" type="curve" smooth="yes"/>
      <point x="2847" y="1782"/>
      <point x="2359" y="1565"/>
    </contour>
    <contour>
      <point x="61" y="82" type="line"/>
      <point x="1679" y="82" type="line"/>
      <point x="1679" y="0" type="line"/>
      <point x="61" y="0" type="line"/>
    </contour>
    <contour>
      <point x="430" y="3072" type="line"/>
      <point x="1311" y="3072" type="line"/>
      <point x="1311" y="0" type="line"/>
      <point x="430" y="0" type="line"/>
    </contour>
    <contour>
      <point x="3154" y="0" type="line"/>
      <point x="3088" y="0"/>
      <point x="2687" y="0"/>
      <point x="2540" y="0" type="curve" smooth="yes"/>
      <point x="1340" y="0"/>
      <point x="2401" y="1536"/>
      <point x="1352" y="1536" type="curve" smooth="yes"/>
      <point x="799" y="1536" type="line"/>
      <point x="799" y="1577" type="line"/>
      <point x="1925" y="1577" type="line" smooth="yes"/>
      <point x="3289" y="1577"/>
      <point x="2425" y="82"/>
      <point x="3011" y="82" type="curve" smooth="yes"/>
      <point x="3097" y="82"/>
      <point x="3097" y="82"/>
      <point x="3154" y="82" type="curve"/>
    </contour>
  </outline>
</glyph>
